<svg xmlns="http://www.w3.org/2000/svg" xmlns:xlink="http://www.w3.org/1999/xlink" version="1.1" id="Layer_1" x="0px" y="0px" width="100px" height="56.839px" viewBox="5.001 21.4641 100.0 76.73265" enable-background="new 0.001 27.148 100 56.839" xml:space="preserve">
<g>
	<path d="M20.255,43.484c3.038,0,5.921,0.668,8.509,1.868l0.618-1.778l1.852-5.323l1.116-3.209h-5.103   c-1.162,1.992-3.618,4.568-9.398,2.588c-0.837-0.285-0.405-1.543,0.43-1.256c5.525,1.892,7.271-0.871,8.108-2.527   c0.185-0.365,0.537-0.433,0.824-0.324h7.481l-1.629,4.67l29.353-0.938l2.627-7.103l-1.565-0.174   c-1.546-0.168-5.436-0.614-5.436-0.614c-0.534-0.046-0.466-0.845,0.067-0.8c0,0,7.688-0.615,8.331-0.739   c8.295-1.591,7.127,0.122,7.127,0.122l-6.519,2.249l-2.806,7.587l5.243,8.488c3.01-1.771,6.517-2.788,10.263-2.788   c11.185,0,20.252,9.066,20.252,20.252c0,11.184-9.067,20.252-20.252,20.252c-9.2,0-16.966-6.134-19.435-14.533l-5.521,1.128   l0.82,4.437h1.877v1.188h-2.066c-0.232,0.149-0.555,0.159-0.783,0h-2.193v-1.188h1.783l-0.781-4.223l-0.145,0.002   c-2.707,0-4.902-2.191-4.902-4.9c0-0.941,0.27-1.822,0.731-2.57L30.718,44.911l-0.432,1.229   c6.106,3.489,10.219,10.062,10.219,17.596c0,11.186-9.065,20.252-20.25,20.252c-11.188,0-20.254-9.066-20.254-20.252   S9.067,43.484,20.255,43.484L20.255,43.484z M79.75,61.962c0.979,0,1.772,0.795,1.773,1.773c0,0.979-0.794,1.773-1.875,1.771   l-16.531,3.375c2.195,7.102,8.811,12.259,16.633,12.259c9.611,0,17.404-7.792,17.404-17.404S89.361,46.329,79.75,46.329   c-3.197,0-6.193,0.863-8.768,2.367l8.242,13.345C79.392,61.989,79.567,61.962,79.75,61.962L79.75,61.962z M78.334,62.669   l-0.085-0.135l-15.812-0.602c-0.062,0.594-0.091,1.195-0.091,1.803c0,0.294,0.006,0.586,0.02,0.877l15.644-1.215   C78.061,63.129,78.174,62.88,78.334,62.669L78.334,62.669z M78.195,64.589l-15.72,1.291c0.103,0.839,0.266,1.656,0.483,2.453   l15.692-3.206C78.465,64.98,78.311,64.798,78.195,64.589L78.195,64.589z M62.506,61.364l15.38,0.584l-7.857-12.651   C66.012,52.006,63.189,56.345,62.506,61.364L62.506,61.364z M59.588,61.823l-3.793-0.143c1.18,0.696,2.041,1.874,2.314,3.262   l1.418-0.111c-0.02-0.362-0.029-0.728-0.029-1.096C59.498,63.09,59.528,62.452,59.588,61.823L59.588,61.823z M59.637,66.114   l-1.443,0.119c-0.093,1.377-0.754,2.601-1.754,3.431l3.725-0.76C59.926,67.996,59.748,67.066,59.637,66.114L59.637,66.114z    M55.033,66.491c-0.145,0.419-0.436,0.769-0.812,0.989l0.467,2.523c1.598-0.538,2.778-1.983,2.931-3.725L55.033,66.491   L55.033,66.491z M52.132,63.64l-0.335-1.801c-0.343,0.129-0.666,0.298-0.963,0.505L52.132,63.64L52.132,63.64z M53.418,61.577   l-0.115-0.01l-0.17,0.006l0.095,0.514L53.418,61.577L53.418,61.577z M61.707,39.177l-29.116,0.929l-1.025,2.966l18.861,18.863   c0.386-0.279,0.812-0.504,1.269-0.664l-0.822-4.438h-1.874v-1.189h2.065c0.231-0.146,0.553-0.156,0.783,0h2.193v1.189h-1.784   l0.772,4.174l0.275-0.008c0.11,0,0.217,0.004,0.324,0.012L61.707,39.177L61.707,39.177z M55.615,61.104l4.033,0.152   c0.731-5.996,4.084-11.182,8.875-14.379l-4.789-7.713L55.615,61.104L55.615,61.104z M54.387,64.429   c0.262,0.192,0.47,0.452,0.599,0.754l2.552-0.197c-0.275-1.288-1.124-2.363-2.267-2.945L54.387,64.429L54.387,64.429z    M49.55,63.741c-0.366,0.638-0.576,1.373-0.576,2.156c0,2.393,1.939,4.333,4.371,4.333l-0.472-2.556   c-0.801-0.193-1.395-0.915-1.395-1.777c0-0.071,0.004-0.144,0.012-0.214L49.55,63.741L49.55,63.741z M20.255,61.908   c0.223,0,0.435,0.039,0.632,0.113c2.176-2.426,4.517-7.567,5.26-9.259c0.129-0.284,0.802-2.2,1.678-4.705   c-2.291-1.107-4.857-1.729-7.569-1.729c-9.614,0-17.406,7.793-17.406,17.406c0,9.614,7.792,17.406,17.406,17.406   c9.61,0,17.404-7.792,17.404-17.406c0-6.288-3.336-11.799-8.336-14.858c-0.863,2.452-1.519,4.285-1.639,4.556   c-1.209,2.737-3.349,7.064-5.728,9.631c0.079,0.208,0.125,0.436,0.125,0.671c0,1.009-0.82,1.827-1.827,1.827   c-1.01,0-1.829-0.818-1.829-1.827S19.245,61.908,20.255,61.908L20.255,61.908z"/>
</g>
<text x="0.001" y="93.933825" font-size="2.84195" font-weight="bold" font-family="Helvetica Neue, Helvetica, Arial-Unicode, Arial, Sans-serif" fill="#000000">Created by Simon Child</text><text x="0.001" y="96.775775" font-size="2.84195" font-weight="bold" font-family="Helvetica Neue, Helvetica, Arial-Unicode, Arial, Sans-serif" fill="#000000">from the Noun Project</text></svg>