<svg xmlns="http://www.w3.org/2000/svg" xmlns:xlink="http://www.w3.org/1999/xlink" version="1.1" id="Layer_1" x="0px" y="0px" width="40px" height="30px" viewBox="2.0 -3.0 40.0 40.5" enable-background="new 0 0 40 30" xml:space="preserve">
<path fill="#000000" d="M11,2V0H2v2H0v4v1v3v1v4v1v4v1v3v1v5h13V2H11z M2,29H1v-4h1V29z M2,24H1v-3h1V24z M2,20H1v-4h1V20z M2,15H1  v-4h1V15z M2,10H1V7h1V10z M2,6H1V3h1V6z M4,29H3v-4h1V29z M4,24H3v-3h1V24z M4,20H3v-4h1V20z M4,15H3v-4h1V15z M4,10H3V7h1V10z   M4,6H3V3h1V6z M6,29H5v-4h1V29z M6,24H5v-3h1V24z M6,20H5v-4h1V20z M6,15H5v-4h1V15z M6,10H5V7h1V10z M6,6H5V3h1V6z M8,29H7v-4h1  V29z M8,24H7v-3h1V24z M8,20H7v-4h1V20z M8,15H7v-4h1V15z M8,10H7V7h1V10z M8,6H7V3h1V6z M10,29H9v-4h1V29z M10,24H9v-3h1V24z   M10,20H9v-4h1V20z M10,15H9v-4h1V15z M10,10H9V7h1V10z M10,6H9V3h1V6z M12,29h-1v-4h1V29z M12,24h-1v-3h1V24z M12,20h-1v-4h1V20z   M12,15h-1v-4h1V15z M12,10h-1V7h1V10z M12,6h-1V3h1V6z"/>
<path fill="#000000" d="M22,3v27h8V3H22z M29,27h-6v-3h6V27z M29,23h-6v-3h6V23z M29,19h-6v-3h6V19z M29,15h-6v-3h6V15z M29,11h-6V8  h6V11z M29,7h-6V4h6V7z"/>
<line fill="#000000" x1="15.833" y1="18.166" x2="15.833" y2="18.166"/>
<path fill="#000000" d="M18,18v-2h-1v2h-1v-4h-1v4h-1v12h7V18H18z M20,23h-5v-1h5V23z M20,21h-5v-1h5V21z"/>
<path fill="#000000" d="M31,20v1v1v8h9v-2v-1v-1v-1v-1v-1v-1v-1v-1H31z M33,29h-1v-1h1V29z M33,27h-1v-1h1V27z M33,25h-1v-1h1V25z   M33,23h-1v-1h1V23z M35,29h-1v-1h1V29z M35,27h-1v-1h1V27z M35,25h-1v-1h1V25z M35,23h-1v-1h1V23z M37,29h-1v-1h1V29z M37,27h-1v-1  h1V27z M37,25h-1v-1h1V25z M37,23h-1v-1h1V23z M39,29h-1v-1h1V29z M39,27h-1v-1h1V27z M39,25h-1v-1h1V25z M39,23h-1v-1h1V23z"/>
<text x="0.0" y="35.25" font-size="1.5" font-weight="bold" font-family="Helvetica Neue, Helvetica, Arial-Unicode, Arial, Sans-serif" fill="#000000">Created by inna belenkey</text><text x="0.0" y="36.75" font-size="1.5" font-weight="bold" font-family="Helvetica Neue, Helvetica, Arial-Unicode, Arial, Sans-serif" fill="#000000">from the Noun Project</text></svg>