<svg xmlns="http://www.w3.org/2000/svg" xmlns:xlink="http://www.w3.org/1999/xlink" version="1.1" x="0px" y="0px" width="100px" height="100px" viewBox="-341.0 246.0 100.0 135.0" enable-background="new -346 256 100 100" xml:space="preserve">
<g id="Layer_1">
	<path d="M-312.042,273.98c-0.43,0-0.861-0.087-1.246-0.279c-1.44-0.688-2.065-2.43-1.377-3.871   c0.667-1.397,2.473-2.042,3.873-1.375c1.44,0.685,2.062,2.43,1.375,3.871C-309.891,273.335-310.922,273.98-312.042,273.98   L-312.042,273.98z"/>
	<path d="M-280.938,273.621c-1.097,0-2.086-0.624-2.581-1.589c-0.73-1.42-0.173-3.163,1.246-3.895   c1.376-0.731,3.205-0.151,3.916,1.228c0.73,1.44,0.172,3.181-1.248,3.912C-280.015,273.493-280.489,273.621-280.938,273.621   L-280.938,273.621z"/>
	<path d="M-308.364,266.196c-0.882,0-1.698-0.388-2.257-1.053c-0.496-0.602-0.732-1.377-0.646-2.151   c0.086-0.775,0.451-1.462,1.055-1.936c1.204-0.988,3.118-0.776,4.085,0.41c1.01,1.247,0.819,3.075-0.408,4.085   C-307.054,265.982-307.719,266.196-308.364,266.196L-308.364,266.196z"/>
	<path d="M-284.805,266.367c-0.647,0-1.246-0.214-1.764-0.6c-0.624-0.475-1.009-1.163-1.12-1.937   c-0.105-0.752,0.111-1.526,0.582-2.13c0.924-1.246,2.814-1.505,4.064-0.558c1.268,0.969,1.527,2.795,0.536,4.086   C-283.042,265.939-283.901,266.367-284.805,266.367L-284.805,266.367z"/>
	<path d="M-300.73,262.411c-1.355,0-2.517-0.902-2.818-2.215c-0.386-1.567,0.582-3.139,2.13-3.504   c1.549-0.365,3.138,0.603,3.504,2.128c0.365,1.571-0.58,3.14-2.126,3.506C-300.28,262.391-300.517,262.411-300.73,262.411   L-300.73,262.411z"/>
	<path d="M-292.189,262.282c-0.214,0-0.409-0.02-0.604-0.064c-1.569-0.323-2.581-1.872-2.26-3.438   c0.323-1.529,1.894-2.562,3.446-2.237c1.566,0.32,2.578,1.872,2.256,3.438C-289.652,261.315-290.837,262.282-292.189,262.282   L-292.189,262.282z"/>
	<path d="M-249.279,310.29l-9.867-5.966l9.565-2.859v-8.554h-11.751l-0.441-6.614c-0.385-4.636-4.26-8.283-8.989-8.283h-18.595   v-9.547h-13.624v9.547h-18.657c-4.727,0-8.603,3.646-8.989,8.283l-0.437,6.614h-11.665v8.554l9.508,2.84l-9.9,5.985l0.022,28.896   h5.068l-0.01,9.457c0,4.062,3.289,7.357,7.347,7.357c4.063,0,7.353-3.296,7.353-7.357l-0.007-9.457h11.988v5.426h6.966v-5.426   h16.226v5.426h6.966v-5.426h12.155l-0.009,9.457c0,4.062,3.289,7.357,7.345,7.357c4.062,0,7.352-3.296,7.352-7.357l-0.009-9.457   h5.066L-249.279,310.29z M-330.875,326.427c-3.401,0-6.158-2.763-6.158-6.167c0-3.399,2.756-6.164,6.158-6.164   c3.397,0,6.156,2.765,6.156,6.164C-324.718,323.664-327.477,326.427-330.875,326.427z M-281.202,328.783v-9.946h-6.966v9.946   h-16.226v-9.946h-6.966v9.946h-7.768l0.01-11.082c0-1.533,1.245-2.779,2.777-2.779h40.208c1.537,0,2.777,1.246,2.777,2.779   l0.011,11.082H-281.202z M-325.284,303.238l1.098-16.597c0.202-2.406,2.214-2.365,4.669-2.365h46.651   c2.454,0,4.466-0.041,4.674,2.365l1.098,16.597H-325.284z M-261.525,326.427c-3.398,0-6.154-2.763-6.154-6.167   c0-3.399,2.756-6.164,6.154-6.164c3.401,0,6.156,2.765,6.156,6.164C-255.369,323.664-258.124,326.427-261.525,326.427z"/>
</g>
<g id="Layer_2">
</g>
<text x="-346.0" y="373.5" font-size="5.0" font-weight="bold" font-family="Helvetica Neue, Helvetica, Arial-Unicode, Arial, Sans-serif" fill="#000000">Created by Luis Prado</text><text x="-346.0" y="378.5" font-size="5.0" font-weight="bold" font-family="Helvetica Neue, Helvetica, Arial-Unicode, Arial, Sans-serif" fill="#000000">from the Noun Project</text></svg>