<svg xmlns="http://www.w3.org/2000/svg" xmlns:xlink="http://www.w3.org/1999/xlink" version="1.1" id="&#1057;&#1083;&#1086;&#1081;_1" x="0px" y="0px" viewBox="5.0 -10.0 100.0 135.0" enable-background="new 0 0 100 100" xml:space="preserve" height="100px" width="100px">
<path d="M72.5,53.8c-0.6,0-1.1,0.1-1.7,0.2c-0.9-2.3-3.2-4-5.8-4c-0.6,0-1.1,0.1-1.7,0.2c-0.9-2.3-3.2-4-5.8-4c-0.4,0-0.8,0-1.3,0.1  v-7c0-3.4-2.8-6.3-6.3-6.3s-6.3,2.8-6.3,6.3V54L37,60.7c-0.5,0.5-0.7,1.1-0.7,1.8V80c0,0.7,0.3,1.3,0.7,1.8l6.8,6.8v4  c0,1.4,1.1,2.5,2.5,2.5s2.5-1.1,2.5-2.5v-5c0-0.7-0.3-1.3-0.7-1.8L41.3,79V63.5l2.5-2.5v11.5c0,1.4,1.1,2.5,2.5,2.5s2.5-1.1,2.5-2.5  V39.4c0-0.7,0.6-1.3,1.3-1.3s1.3,0.6,1.3,1.3v23.1c0,1.4,1.1,2.5,2.5,2.5s2.5-1.1,2.5-2.5v-10c0-0.7,0.6-1.3,1.3-1.3  s1.3,0.6,1.3,1.3v10c0,1.4,1.1,2.5,2.5,2.5s2.5-1.1,2.5-2.5v-6.3c0-0.7,0.6-1.3,1.3-1.3s1.3,0.6,1.3,1.3v6.3c0,1.4,1.1,2.5,2.5,2.5  s2.5-1.1,2.5-2.5V60c0-0.7,0.6-1.3,1.3-1.3s1.3,0.6,1.3,1.3v19.6l-2.4,7.1c-0.1,0.3-0.1,0.5-0.1,0.8v3.2v1.8c0,1.4,1.1,2.5,2.5,2.5  s2.5-1.1,2.5-2.5v-4.6l2.4-7.1c0.1-0.3,0.1-0.5,0.1-0.8V60C78.8,56.6,75.9,53.8,72.5,53.8z"/>
<path d="M75,5c-11,0-20,9-20,20s9,20,20,20s20-9,20-20S86,5,75,5z M75,40c-8.3,0-15-6.7-15-15s6.7-15,15-15s15,6.7,15,15  S83.3,40,75,40z"/>
<polygon points="80.3,16.2 75,21.5 69.7,16.2 66.2,19.7 71.5,25 66.2,30.3 69.7,33.8 75,28.5 80.3,33.8 83.8,30.3 78.5,25   83.8,19.7 "/>
<path d="M45,25c0-11-9-20-20-20S5,14,5,25s9,20,20,20S45,36,45,25z M25,40c-8.3,0-15-6.7-15-15s6.7-15,15-15s15,6.7,15,15  S33.3,40,25,40z"/>
<polygon points="32.2,17.6 23.3,26.5 18,21.2 14.5,24.7 23.3,33.5 35.7,21.2 "/>
<text x="0.0" y="117.5" font-size="5.0" font-weight="bold" font-family="Helvetica Neue, Helvetica, Arial-Unicode, Arial, Sans-serif" fill="#000000">Created by Arthur Shlain</text><text x="0.0" y="122.5" font-size="5.0" font-weight="bold" font-family="Helvetica Neue, Helvetica, Arial-Unicode, Arial, Sans-serif" fill="#000000">from the Noun Project</text></svg>