<svg xmlns="http://www.w3.org/2000/svg" xmlns:xlink="http://www.w3.org/1999/xlink" version="1.1" id="Calque_1" x="0px" y="0px" width="100px" height="100px" viewBox="0 0 100 100" enable-background="new 0 0 100 100" xml:space="preserve">
<g>
	<path fill="#000000" d="M44.843,66.412c0.107,0.039,2.472,1.005,5.326,1.005c2.303,0,4.148-0.62,5.017-0.913   c0.782-0.184,1.35-0.881,1.35-1.716c0-0.972-0.782-1.755-1.755-1.755l-0.848,0.183c-0.17,0.059-0.561,0.17-0.9,0.261   c-0.365-1.154-1.493-2.016-2.876-2.016c-1.402,0-2.528,0.875-2.883,2.049c-0.652-0.177-1.086-0.34-1.092-0.346   c-0.917-0.365-1.925,0.071-2.287,0.965C43.525,65.022,43.946,66.047,44.843,66.412z"/>
	<path fill="#000000" d="M81.452,38.723c0-9.839,0-14.97,0-14.97C75.36,8.999,56.854,4.778,56.854,4.778V0.555   c0,0-37.714-2.958-37.714,26.463c0,0,0,1.866,0,11.705c0,0-8.199,0.235-8.199,10.548c0,8.075,5.567,12.229,7.991,13.658   c0.372,3.549,2.439,18.179,11.232,27.865c4.599,5.056,11.007,8.734,19.979,8.734c26.033,0,30.703-30.886,31.342-36.501   c2.315-1.324,8.159-5.473,8.159-13.757C89.645,38.958,81.452,38.723,81.452,38.723z M22.815,59.681v-14.66   c0,0-3.675-24.216,27.481-24.216c0,0,3.088-0.046,7.178,0.789c-2.772,4.918-8.023,12.964-15.426,19.458   c-1.699-0.339-3.598-0.493-5.639-0.493c-6.852,0-12.41,1.406-12.41,7.622c0,3.659,1.957,6.882,4.938,8.937   c-1.145,1.271-3.108,3.34-5.857,5.884C22.995,61.892,22.815,60.815,22.815,59.681z M44.465,50.203c0,0.098-0.023,0.176-0.065,0.28   c-0.02,0.052,0,0.117-0.036,0.17c-0.144,0.202-3.555,5.009-7.955,5.009s-7.808-4.807-7.951-5.009   c-0.036-0.053-0.017-0.118-0.036-0.17c-0.042-0.098-0.065-0.176-0.065-0.28s0.023-0.183,0.065-0.28c0.02-0.053,0-0.118,0.036-0.17   c0.144-0.202,3.552-5.013,7.951-5.013s7.811,4.811,7.955,5.013c0.036,0.052,0.016,0.117,0.036,0.17   C44.442,50.027,44.465,50.105,44.465,50.203z M77.773,59.681c0,19.177-12.309,34.728-27.477,34.728   c-12.7,0-23.287-10.952-26.434-25.746c1.729-1.532,6.692-6.066,9.37-9.641c1.021,0.242,2.071,0.418,3.177,0.418   c6.852,0,12.41-5.042,12.41-11.259c0-2.27-0.757-3.887-2.032-5.042c7.622-7.175,12.813-15.491,15.391-20.233   c7.43,2.632,15.596,8.581,15.596,22.115C77.773,53.132,77.773,57.47,77.773,59.681z"/>
	<path fill="#000000" d="M36.409,76.398v2.27c0,0,4.723,4.006,13.74,4.006c9.015,0,13.73-4.293,13.73-4.293v-2.837H36.409V76.398z"/>
	<path fill="#000000" d="M36.712,49.74l0.897-3.122c-0.388-0.14-0.815-0.222-1.252-0.222c-2.035,0-3.692,1.654-3.692,3.689   c0,2.041,1.657,3.691,3.692,3.691c2.042,0,3.689-1.65,3.689-3.691c0-0.281-0.029-0.555-0.085-0.809L36.712,49.74z"/>
	<path fill="#000000" d="M64.199,49.721l0.939-3.249c-0.404-0.144-0.854-0.228-1.305-0.228c-2.119,0-3.848,1.722-3.848,3.842   c0,2.126,1.729,3.842,3.848,3.842c2.127,0,3.836-1.716,3.836-3.842c0-0.294-0.026-0.574-0.085-0.842L64.199,49.721z"/>
	<path fill="#000000" d="M54.508,43.502c-0.713,0.893-0.561,2.185,0.332,2.898c0.382,0.299,0.822,0.442,1.277,0.444   c0.609,0.001,1.206-0.266,1.623-0.783c4.403-5.56,12.034-2.455,12.347-2.311c1.064,0.443,2.258-0.056,2.703-1.098   c0.441-1.049-0.038-2.253-1.086-2.703C67.988,38.376,59.6,37.064,54.508,43.502z"/>
</g>
</svg>