<svg xmlns="http://www.w3.org/2000/svg" xmlns:xlink="http://www.w3.org/1999/xlink" version="1.1" x="0px" y="0px" width="100px" height="100px" viewBox="5.0 -10.0 100.0 135.0" enable-background="new 0 0 100 100" xml:space="preserve">
<g id="Captions">
</g>
<g id="Your_Icon">
	<path d="M82,86.176V77h11.891L78.864,27.669L63.839,77H75v8.692c-9-0.665-19.585-1.013-29.503-1.013   C39.915,84.68,34,84.82,29,85.033V75h17.303L24.345,2.912L2.387,75H19v10.488c-6,0.365-12.033,0.827-18.138,1.447l1.045,8.784   c14.44-1.466,29.25-2.21,43.866-2.21c17.35,0,34.857,1.047,51.962,3.115l1.031-8.767C93.223,87.188,87,86.636,82,86.176z"/>
</g>
<text x="0.0" y="117.5" font-size="5.0" font-weight="bold" font-family="Helvetica Neue, Helvetica, Arial-Unicode, Arial, Sans-serif" fill="#000000">Created by Antar Walker</text><text x="0.0" y="122.5" font-size="5.0" font-weight="bold" font-family="Helvetica Neue, Helvetica, Arial-Unicode, Arial, Sans-serif" fill="#000000">from the Noun Project</text></svg>