<svg xmlns:x="http://ns.adobe.com/Extensibility/1.0/" xmlns:i="http://ns.adobe.com/AdobeIllustrator/10.0/" xmlns:graph="http://ns.adobe.com/Graphs/1.0/" xmlns="http://www.w3.org/2000/svg" xmlns:xlink="http://www.w3.org/1999/xlink" xmlns:a="http://ns.adobe.com/AdobeSVGViewerExtensions/3.0/" version="1.1" id="Your_Icon" x="0px" y="0px" width="100px" height="100px" viewBox="5.0 -10.0 100.0 135.0" enable-background="new 0 0 100 100" xml:space="preserve">
<path d="M58.248,32.491c-0.431,0.392-7.462,6.679-16.153,14.449c1.385,1.687,3.008,3.5,4.927,5.42  c2.447,2.438,4.725,4.412,6.784,6.01c8.384-9.378,15.275-17.082,15.629-17.474c0.94-1.034,1.693-0.719,2.101-0.603  c6.896,1.952,14.677,0.232,18.228-7.172c3.279-6.841,0.598-12.116-1.588-15.76c-0.524-0.885-1.366-0.354-1.586,0.11  c-0.232,0.47-4.169,8.688-4.169,8.688c-1.052,2.201-3.628,3.849-8.782,1.382c-5.153-2.472-5.469-5.513-4.413-7.708  c0,0,3.677-7.665,4.169-8.687c0.488-1.029-0.258-1.289-0.706-1.228c-4.22,0.552-10.035,1.775-13.319,8.626  c-1.886,3.927-1.772,7.775-0.382,11.154C59.193,30.207,59.43,31.44,58.248,32.491z M26.802,72.582  c-2.071-2.074-4.103-4.264-6.071-6.536C13.18,72.798,7.503,77.875,7.503,77.875c-0.292,0.264-0.58,0.553-0.851,0.845  C2.676,83.172,3.06,89.995,7.503,93.967c4.444,3.975,11.265,3.589,15.238-0.853c0,0,5.096-5.701,11.917-13.333  C31.917,77.465,29.271,75.049,26.802,72.582z M12.339,8.552C4.34,16.687,3.904,26.983,3.904,26.983  c1.999,9.987,13.155,28.185,26.734,41.756c13.573,13.582,31.767,24.74,41.761,26.73c0,0,10.298-0.426,18.426-8.433l0.007,0.011  l4.792-4.788c0.632-0.631,0.632-1.676,0-2.307l-20.32-20.321c-0.638-0.631-1.677-0.631-2.307,0l-4.79,4.793l0.012,0.018  l-4.503,5.579c0,0-8.538-1.841-20.527-13.83C31.196,44.203,29.354,35.665,29.354,35.665l5.583-4.512l0.014,0.022l0.161-0.161  l0.002-0.006l0,0l4.631-4.623c0.633-0.642,0.633-1.675,0-2.312L19.426,3.763c-0.633-0.635-1.669-0.635-2.3,0l-4.792,4.789H12.339z"/>
<text x="0.0" y="117.5" font-size="5.0" font-weight="bold" font-family="Helvetica Neue, Helvetica, Arial-Unicode, Arial, Sans-serif" fill="#000000">Created by Evan MacDonald</text><text x="0.0" y="122.5" font-size="5.0" font-weight="bold" font-family="Helvetica Neue, Helvetica, Arial-Unicode, Arial, Sans-serif" fill="#000000">from the Noun Project</text></svg>