<svg xmlns="http://www.w3.org/2000/svg" xmlns:xlink="http://www.w3.org/1999/xlink" version="1.1" id="&#1057;&#1083;&#1086;&#1081;_1" x="0px" y="0px" viewBox="5.0 -10.0 100.0 135.0" enable-background="new 0 0 100 100" xml:space="preserve" height="100px" width="100px">
<path d="M78.3,4.3H66.8v10h-55v6.5h22.5v6.4l-7.1,7.1h-2.9v9h21.5v-9h-2.9l-7.1-7.1v-6.4h31v46l-11,0v-15H14.3v41.5h52.5h11.5h7.5  V66.8l-7.5,0v-46h17.5v-6.5H78.3V4.3z M68.3,5.8h8.5v8.5h-8.5V5.8z M44.3,35.8v6H25.8v-6H44.3z M40.7,34.3H29.3l5.7-5.7L40.7,34.3z   M84.3,68.3v23.5h-7.5h-8.5H15.8V53.3h38.5v15L84.3,68.3z M68.3,66.8v-46h8.5v46L68.3,66.8z M94.3,15.8v3.5h-81v-3.5H94.3z"/>
<path d="M24.3,83.3h6.5v-6.5h-6.5V83.3z M25.8,78.3h3.5v3.5h-3.5V78.3z"/>
<path d="M39.3,83.3h6.5v-6.5h-6.5V83.3z M40.8,78.3h3.5v3.5h-3.5V78.3z"/>
<path d="M54.3,83.3h6.5v-6.5h-6.5V83.3z M55.8,78.3h3.5v3.5h-3.5V78.3z"/>
<path d="M75.8,76.8h-6.5v6.5h6.5V76.8z M74.3,81.8h-3.5v-3.5h3.5V81.8z"/>
<path d="M39.3,68.3h6.5v-6.5h-6.5V68.3z M40.8,63.3h3.5v3.5h-3.5V63.3z"/>
<path d="M24.3,68.3h6.5v-6.5h-6.5V68.3z M25.8,63.3h3.5v3.5h-3.5V63.3z"/>
<path d="M81.8,33.3h6.5v-9h-6.5V33.3z M83.3,25.8h3.5v6h-3.5V25.8z"/>

<text x="-10.0" y="117.5" font-size="8.0" font-weight="bold" font-family="Helvetica Neue, Helvetica, Arial-Unicode, Arial, Sans-serif" fill="#000000">
  This page is under construction
</text>

<text x="0.0" y="122.5" font-size="5.0" font-weight="bold" font-family="Helvetica Neue, Helvetica, Arial-Unicode, Arial, Sans-serif" fill="#000000"></text>

</svg>